{
	"patcher" : 	{
		"fileversion" : 1,
		"appversion" : 		{
			"major" : 8,
			"minor" : 6,
			"revision" : 5,
			"architecture" : "x64",
			"modernui" : 1
		}
,
		"classnamespace" : "box",
		"rect" : [ 0.0, 0.0, 640.0, 480.0 ],
		"bglocked" : 0,
		"openinpresentation" : 0,
		"default_fontsize" : 12.0,
		"default_fontface" : 0,
		"default_fontname" : "Arial",
		"gridonopen" : 1,
		"gridsize" : [ 15.0, 15.0 ],
		"gridsnaponopen" : 1,
		"objectsnaponopen" : 1,
		"statusbarvisible" : 2,
		"toolbarvisible" : 1,
		"lefttoolbarpinned" : 0,
		"toptoolbarpinned" : 0,
		"righttoolbarpinned" : 0,
		"bottomtoolbarpinned" : 0,
		"toolbars_unpinned_last_save" : 0,
		"tallnewobj" : 0,
		"boxanimatetime" : 200,
		"enablehscroll" : 1,
		"enablevscroll" : 1,
		"devicewidth" : 0.0,
		"description" : "",
		"digest" : "",
		"tags" : "",
		"style" : "",
		"subpatcher_template" : "",
		"assistshowspatchername" : 0,
		"boxes" : [ 			{
				"box" : 				{
					"bgcolor" : [ 1.0, 0.788235, 0.470588, 1.0 ],
					"fontname" : "Arial Bold",
					"hint" : "",
					"id" : "obj-25",
					"ignoreclick" : 1,
					"legacytextcolor" : 1,
					"maxclass" : "textbutton",
					"numinlets" : 1,
					"numoutlets" : 3,
					"outlettype" : [ "", "", "int" ],
					"parameter_enable" : 0,
					"patching_rect" : [ 818.811883628368378, 347.524753510951996, 20.0, 20.0 ],
					"rounded" : 20.0,
					"text" : "1",
					"textcolor" : [ 0.34902, 0.34902, 0.34902, 1.0 ]
				}

			}
, 			{
				"box" : 				{
					"id" : "obj-9",
					"lastchannelcount" : 0,
					"maxclass" : "live.gain~",
					"numinlets" : 2,
					"numoutlets" : 5,
					"orientation" : 1,
					"outlettype" : [ "signal", "signal", "", "float", "list" ],
					"parameter_enable" : 1,
					"patching_rect" : [ 658.415843546390533, 286.13861471414566, 120.0, 36.0 ],
					"saved_attribute_attributes" : 					{
						"valueof" : 						{
							"parameter_initial" : [ -200 ],
							"parameter_initial_enable" : 1,
							"parameter_longname" : "live.gain~[1]",
							"parameter_mmax" : 6.0,
							"parameter_mmin" : -70.0,
							"parameter_modmode" : 0,
							"parameter_shortname" : "live.gain~",
							"parameter_type" : 0,
							"parameter_unitstyle" : 4
						}

					}
,
					"showname" : 0,
					"varname" : "live.gain~"
				}

			}
, 			{
				"box" : 				{
					"fontname" : "Arial",
					"fontsize" : 13.0,
					"hidden" : 1,
					"id" : "obj-13",
					"maxclass" : "message",
					"numinlets" : 2,
					"numoutlets" : 1,
					"outlettype" : [ "" ],
					"patching_rect" : [ 1227.722775936126709, 85.148515105247498, 48.0, 23.0 ],
					"text" : "set $1"
				}

			}
, 			{
				"box" : 				{
					"fontname" : "Arial",
					"fontsize" : 13.0,
					"hidden" : 1,
					"id" : "obj-14",
					"maxclass" : "message",
					"numinlets" : 2,
					"numoutlets" : 1,
					"outlettype" : [ "" ],
					"patching_rect" : [ 1147.524755895137787, 85.148515105247498, 48.0, 23.0 ],
					"text" : "set $1"
				}

			}
, 			{
				"box" : 				{
					"fontname" : "Arial",
					"fontsize" : 13.0,
					"hidden" : 1,
					"id" : "obj-8",
					"maxclass" : "message",
					"numinlets" : 2,
					"numoutlets" : 1,
					"outlettype" : [ "" ],
					"patching_rect" : [ 1052.475250661373138, 85.148515105247498, 48.0, 23.0 ],
					"text" : "set $1"
				}

			}
, 			{
				"box" : 				{
					"fontname" : "Arial",
					"fontsize" : 13.0,
					"id" : "obj-15",
					"maxclass" : "comment",
					"numinlets" : 1,
					"numoutlets" : 0,
					"patching_rect" : [ 923.762378990650177, 360.396040678024292, 325.0, 21.0 ],
					"style" : "helpfile_label",
					"text" : "produces a list of coefficients for the biquad~ object "
				}

			}
, 			{
				"box" : 				{
					"fontname" : "Arial",
					"fontsize" : 13.0,
					"id" : "obj-16",
					"maxclass" : "message",
					"numinlets" : 2,
					"numoutlets" : 1,
					"outlettype" : [ "" ],
					"patching_rect" : [ 913.861388862133026, 330.693070292472839, 360.0, 23.0 ],
					"text" : "0.00252 0.00504 0.00252 -1.94041 0.95049"
				}

			}
, 			{
				"box" : 				{
					"bubble" : 1,
					"bubbleside" : 2,
					"fontname" : "Arial",
					"fontsize" : 13.0,
					"id" : "obj-71",
					"maxclass" : "comment",
					"numinlets" : 1,
					"numoutlets" : 0,
					"patching_rect" : [ 1214.851488769054413, 70.297029912471771, 73.0, 40.0 ],
					"text" : "set Q or S"
				}

			}
, 			{
				"box" : 				{
					"fontname" : "Arial",
					"fontsize" : 13.0,
					"format" : 6,
					"id" : "obj-72",
					"maxclass" : "flonum",
					"numinlets" : 1,
					"numoutlets" : 2,
					"outlettype" : [ "", "bang" ],
					"parameter_enable" : 0,
					"patching_rect" : [ 1227.722775936126709, 120.792079567909241, 55.0, 23.0 ]
				}

			}
, 			{
				"box" : 				{
					"fontname" : "Arial",
					"fontsize" : 13.0,
					"format" : 6,
					"id" : "obj-74",
					"maxclass" : "flonum",
					"numinlets" : 1,
					"numoutlets" : 2,
					"outlettype" : [ "", "bang" ],
					"parameter_enable" : 0,
					"patching_rect" : [ 1147.524755895137787, 120.792079567909241, 55.0, 23.0 ]
				}

			}
, 			{
				"box" : 				{
					"fontname" : "Arial",
					"fontsize" : 13.0,
					"format" : 6,
					"id" : "obj-75",
					"maxclass" : "flonum",
					"numinlets" : 1,
					"numoutlets" : 2,
					"outlettype" : [ "", "bang" ],
					"parameter_enable" : 0,
					"patching_rect" : [ 1057.425745725631714, 120.792079567909241, 57.0, 23.0 ]
				}

			}
, 			{
				"box" : 				{
					"fontface" : 0,
					"id" : "obj-81",
					"linmarkers" : [ 0.0, 11025.0, 16537.5 ],
					"logmarkers" : [ 0.0, 100.0, 1000.0, 10000.0 ],
					"maxclass" : "filtergraph~",
					"nfilters" : 1,
					"numinlets" : 8,
					"numoutlets" : 7,
					"outlettype" : [ "list", "float", "float", "float", "float", "list", "int" ],
					"parameter_enable" : 0,
					"patching_rect" : [ 913.861388862133026, 158.415842056274414, 360.0, 155.0 ],
					"setfilter" : [ 0, 1, 1, 0, 0, 777.0, 1.0, 2.0, 0.0, 0.0, 0.0, 0.0, 0.0, 0.0 ],
					"varname" : "filtergraph~"
				}

			}
, 			{
				"box" : 				{
					"bubble" : 1,
					"bubbleside" : 2,
					"fontname" : "Arial",
					"fontsize" : 13.0,
					"id" : "obj-82",
					"linecount" : 2,
					"maxclass" : "comment",
					"numinlets" : 1,
					"numoutlets" : 0,
					"patching_rect" : [ 1041.584161520004272, 55.445544719696045, 88.25, 55.0 ],
					"text" : "set cutoff or center freq"
				}

			}
, 			{
				"box" : 				{
					"bubble" : 1,
					"bubbleside" : 2,
					"fontname" : "Arial",
					"fontsize" : 13.0,
					"id" : "obj-83",
					"maxclass" : "comment",
					"numinlets" : 1,
					"numoutlets" : 0,
					"patching_rect" : [ 1142.574260830879211, 70.297029912471771, 59.0, 40.0 ],
					"text" : "set gain"
				}

			}
, 			{
				"box" : 				{
					"bubble" : 1,
					"fontname" : "Arial",
					"fontsize" : 13.0,
					"id" : "obj-24",
					"linecount" : 2,
					"maxclass" : "comment",
					"numinlets" : 1,
					"numoutlets" : 0,
					"patching_rect" : [ 743.564358651638031, 191.089109480381012, 120.0, 40.0 ],
					"text" : "clear biquad~ if filter blows up"
				}

			}
, 			{
				"box" : 				{
					"fontname" : "Arial",
					"fontsize" : 13.0,
					"id" : "obj-63",
					"maxclass" : "message",
					"numinlets" : 2,
					"numoutlets" : 1,
					"outlettype" : [ "" ],
					"patching_rect" : [ 694.059408009052277, 200.990099608898163, 43.0, 23.0 ],
					"text" : "clear"
				}

			}
, 			{
				"box" : 				{
					"fontname" : "Arial",
					"fontsize" : 13.0,
					"id" : "obj-20",
					"maxclass" : "newobj",
					"numinlets" : 6,
					"numoutlets" : 1,
					"outlettype" : [ "signal" ],
					"patching_rect" : [ 658.415843546390533, 245.544555187225342, 92.0, 23.0 ],
					"text" : "biquad~"
				}

			}
, 			{
				"box" : 				{
					"attr" : "edit_mode",
					"fontface" : 0,
					"fontname" : "Arial",
					"fontsize" : 13.0,
					"id" : "obj-21",
					"lock" : 1,
					"maxclass" : "attrui",
					"numinlets" : 1,
					"numoutlets" : 1,
					"orientation" : 1,
					"outlettype" : [ "" ],
					"parameter_enable" : 0,
					"patching_rect" : [ 913.861388862133026, 106.930693387985229, 83.0, 46.0 ],
					"text_width" : 83.0
				}

			}
, 			{
				"box" : 				{
					"id" : "obj-4",
					"maxclass" : "newobj",
					"numinlets" : 1,
					"numoutlets" : 1,
					"outlettype" : [ "signal" ],
					"patching_rect" : [ 413.65080052614212, 358.642003953456879, 44.0, 22.0 ],
					"text" : "noise~"
				}

			}
, 			{
				"box" : 				{
					"id" : "obj-2",
					"maxclass" : "mc.ezdac~",
					"numinlets" : 1,
					"numoutlets" : 0,
					"patching_rect" : [ 154.920637786388397, 554.704596921801567, 45.0, 45.0 ]
				}

			}
, 			{
				"box" : 				{
					"id" : "obj-1",
					"maxclass" : "newobj",
					"numinlets" : 16,
					"numoutlets" : 1,
					"outlettype" : [ "multichannelsignal" ],
					"patching_rect" : [ 154.923414051532745, 519.912474274635315, 176.5, 22.0 ],
					"text" : "mc.pack~ 16"
				}

			}
, 			{
				"box" : 				{
					"id" : "obj-66",
					"maxclass" : "newobj",
					"numinlets" : 1,
					"numoutlets" : 2,
					"outlettype" : [ "float", "float" ],
					"patching_rect" : [ 112.063494265079498, 253.968257904052734, 61.0, 22.0 ],
					"text" : "unpack f f"
				}

			}
, 			{
				"box" : 				{
					"id" : "obj-54",
					"maxclass" : "newobj",
					"numinlets" : 1,
					"numoutlets" : 1,
					"outlettype" : [ "" ],
					"patching_rect" : [ 142.063494265079498, 182.539685368537903, 61.0, 22.0 ],
					"text" : "sprintf /%i"
				}

			}
, 			{
				"box" : 				{
					"id" : "obj-53",
					"maxclass" : "newobj",
					"numinlets" : 2,
					"numoutlets" : 2,
					"outlettype" : [ "", "" ],
					"patching_rect" : [ 112.063494265079498, 216.666670024394989, 36.0, 22.0 ],
					"text" : "route"
				}

			}
, 			{
				"box" : 				{
					"id" : "obj-52",
					"maxclass" : "newobj",
					"numinlets" : 1,
					"numoutlets" : 1,
					"outlettype" : [ "" ],
					"patching_rect" : [ 30.952381432056427, 135.71428781747818, 97.0, 22.0 ],
					"text" : "udpreceive 3001"
				}

			}
, 			{
				"box" : 				{
					"id" : "obj-50",
					"maxclass" : "message",
					"numinlets" : 2,
					"numoutlets" : 1,
					"outlettype" : [ "" ],
					"patching_rect" : [ 373.015878796577454, 253.968257904052734, 59.0, 22.0 ],
					"text" : "mute 1, 0"
				}

			}
, 			{
				"box" : 				{
					"id" : "obj-48",
					"maxclass" : "newobj",
					"numinlets" : 1,
					"numoutlets" : 1,
					"outlettype" : [ "bang" ],
					"patching_rect" : [ 373.015878796577454, 216.666670024394989, 58.0, 22.0 ],
					"text" : "loadbang"
				}

			}
, 			{
				"box" : 				{
					"id" : "obj-47",
					"maxclass" : "newobj",
					"numinlets" : 1,
					"numoutlets" : 3,
					"outlettype" : [ "int", "int", "int" ],
					"patching_rect" : [ 461.904769062995911, 300.000004649162292, 56.0, 22.0 ],
					"text" : "thispoly~"
				}

			}
, 			{
				"box" : 				{
					"id" : "obj-46",
					"maxclass" : "message",
					"numinlets" : 2,
					"numoutlets" : 1,
					"outlettype" : [ "" ],
					"patching_rect" : [ 461.904769062995911, 253.968257904052734, 59.0, 22.0 ],
					"text" : "mute 0, 1"
				}

			}
, 			{
				"box" : 				{
					"id" : "obj-44",
					"maxclass" : "button",
					"numinlets" : 1,
					"numoutlets" : 1,
					"outlettype" : [ "bang" ],
					"parameter_enable" : 0,
					"patching_rect" : [ 461.904769062995911, 215.873019218444824, 24.0, 24.0 ]
				}

			}
, 			{
				"box" : 				{
					"id" : "obj-42",
					"maxclass" : "newobj",
					"numinlets" : 1,
					"numoutlets" : 2,
					"outlettype" : [ "int", "bang" ],
					"patching_rect" : [ 142.063494265079498, 135.71428781747818, 29.5, 22.0 ],
					"text" : "t i b"
				}

			}
, 			{
				"box" : 				{
					"id" : "obj-41",
					"maxclass" : "newobj",
					"numinlets" : 1,
					"numoutlets" : 1,
					"outlettype" : [ "" ],
					"patching_rect" : [ 142.063494265079498, 96.03174751996994, 28.0, 22.0 ],
					"text" : "in 1"
				}

			}
, 			{
				"box" : 				{
					"id" : "obj-5",
					"maxclass" : "message",
					"numinlets" : 2,
					"numoutlets" : 1,
					"outlettype" : [ "" ],
					"patching_rect" : [ 231.111115157604218, 350.793656229972839, 58.0, 22.0 ],
					"text" : "Elevation"
				}

			}
, 			{
				"box" : 				{
					"id" : "obj-6",
					"maxclass" : "newobj",
					"numinlets" : 2,
					"numoutlets" : 1,
					"outlettype" : [ "" ],
					"patching_rect" : [ 280.158734500408173, 392.857148945331573, 79.0, 22.0 ],
					"text" : "sprintf %s %f"
				}

			}
, 			{
				"box" : 				{
					"id" : "obj-7",
					"maxclass" : "newobj",
					"numinlets" : 6,
					"numoutlets" : 1,
					"outlettype" : [ "" ],
					"patching_rect" : [ 280.317465126514435, 300.000004649162292, 114.0, 22.0 ],
					"text" : "scale -180 180 0. 1."
				}

			}
, 			{
				"box" : 				{
					"id" : "obj-19",
					"maxclass" : "message",
					"numinlets" : 2,
					"numoutlets" : 1,
					"outlettype" : [ "" ],
					"patching_rect" : [ 62.857144296169281, 350.793656229972839, 52.0, 22.0 ],
					"text" : "Azimuth"
				}

			}
, 			{
				"box" : 				{
					"id" : "obj-17",
					"maxclass" : "newobj",
					"numinlets" : 2,
					"numoutlets" : 1,
					"outlettype" : [ "" ],
					"patching_rect" : [ 112.063494265079498, 392.857148945331573, 79.0, 22.0 ],
					"text" : "sprintf %s %f"
				}

			}
, 			{
				"box" : 				{
					"id" : "obj-11",
					"maxclass" : "newobj",
					"numinlets" : 6,
					"numoutlets" : 1,
					"outlettype" : [ "" ],
					"patching_rect" : [ 112.063494265079498, 300.000004649162292, 97.0, 22.0 ],
					"text" : "scale 0 360 0. 1."
				}

			}
, 			{
				"box" : 				{
					"id" : "obj-32",
					"linecount" : 5,
					"maxclass" : "comment",
					"numinlets" : 1,
					"numoutlets" : 0,
					"patching_rect" : [ 575.555564939975739, 423.015879571437836, 150.0, 74.0 ],
					"text" : "Params of interest:\nMix, Delay_Ms, DelayWarp, Feedback, Density, Width, ModRate, ModDepth"
				}

			}
, 			{
				"box" : 				{
					"id" : "obj-31",
					"linecount" : 2,
					"maxclass" : "comment",
					"numinlets" : 1,
					"numoutlets" : 0,
					"patching_rect" : [ 404.126990854740143, 488.095245659351349, 150.0, 33.0 ],
					"text" : "Params of interest:\nAzimuth, Elevation"
				}

			}
, 			{
				"box" : 				{
					"autosave" : 1,
					"bgmode" : 0,
					"border" : 0,
					"clickthrough" : 0,
					"id" : "obj-12",
					"maxclass" : "newobj",
					"numinlets" : 2,
					"numoutlets" : 8,
					"offset" : [ 0.0, 0.0 ],
					"outlettype" : [ "signal", "signal", "", "list", "int", "", "", "" ],
					"patching_rect" : [ 413.65080052614212, 448.412705361843109, 152.0, 22.0 ],
					"save" : [ "#N", "vst~", "loaduniqueid", 0, "ValhallaSupermassive", ";" ],
					"saved_attribute_attributes" : 					{
						"valueof" : 						{
							"parameter_invisible" : 1,
							"parameter_longname" : "vst~[6]",
							"parameter_modmode" : 0,
							"parameter_shortname" : "vst~[3]",
							"parameter_type" : 3
						}

					}
,
					"saved_object_attributes" : 					{
						"parameter_enable" : 1,
						"parameter_mappable" : 0
					}
,
					"snapshot" : 					{
						"filetype" : "C74Snapshot",
						"version" : 2,
						"minorversion" : 0,
						"name" : "snapshotlist",
						"origin" : "vst~",
						"type" : "list",
						"subtype" : "Undefined",
						"embed" : 1,
						"snapshot" : 						{
							"pluginname" : "ValhallaSupermassive.vstinfo",
							"plugindisplayname" : "ValhallaSupermassive",
							"pluginsavedname" : "",
							"pluginsaveduniqueid" : 1934451059,
							"version" : 1,
							"isbank" : 0,
							"isbase64" : 1,
							"blob" : "557.CMlaKA....fQPMDZ....ALWSgMG.D.......A........................................DP7VMjLgfd....O+fWarAhckI2bo8la8HRLt.iHfTlai8FYo41Y8HRUTYTK3HxO9.BOVEFanEFarE1T0AWYx0VXyMWZ1UFHvwVcmklaVUlbyk1at0iHz3BLt.iHf.mbkMWYz4TXsUVOhLEbgMVYIMGUnUFTrE1XkIBHMkFd8HBLt.iHfPTYrEVdSkmai0iHv3hL0HBHDUFagkmSuQWY8HBLtHSMh.BQkwVX48USy0iHv3RMvTSL3XCLxDyLxbSN2HCMh.BQkwVX4cUXxAWOh.iK1HiM4jSN4bCMxTCL2jyL0HBHCwVYgIWOhDiKvHBHFUVYjIVXisVOh.iK1fSMv.CLv.iLyfCMwfSM3HBHDUlaykFc40iHw3BLh.xUoQFcn0iHw3BLh.BSuc2P0QWOh.iKvHBHHk1YnMTcz0iHw3BLh.RSuQlTgQWY8HBLtHCNxjSN4jSNxLyMvXCL0TiHfzzajQTYvQGZ8HBLtTiHfzzajUVOh.iKx.CNyLyLyHCNyXiMxbSN1HBHRU1bkImckQVL8HBLt.iHfHUYyUlb1UFYxziHv3BLh.hTkMWYxYWYjMSOh.iKvHBHRU1bkImckQFM8HBLt.iHfzVZ3wzaisVOh.iHfTWZWkFYzgVOhfiLvHBH0kFRkk1YnQWOhPyL0HxK9.."
						}
,
						"snapshotlist" : 						{
							"current_snapshot" : 0,
							"entries" : [ 								{
									"filetype" : "C74Snapshot",
									"version" : 2,
									"minorversion" : 0,
									"name" : "ValhallaSupermassive",
									"origin" : "ValhallaSupermassive.vstinfo",
									"type" : "VST",
									"subtype" : "AudioEffect",
									"embed" : 0,
									"snapshot" : 									{
										"pluginname" : "ValhallaSupermassive.vstinfo",
										"plugindisplayname" : "ValhallaSupermassive",
										"pluginsavedname" : "",
										"pluginsaveduniqueid" : 1934451059,
										"version" : 1,
										"isbank" : 0,
										"isbase64" : 1,
										"blob" : "557.CMlaKA....fQPMDZ....ALWSgMG.D.......A........................................DP7VMjLgfd....O+fWarAhckI2bo8la8HRLt.iHfTlai8FYo41Y8HRUTYTK3HxO9.BOVEFanEFarE1T0AWYx0VXyMWZ1UFHvwVcmklaVUlbyk1at0iHz3BLt.iHf.mbkMWYz4TXsUVOhLEbgMVYIMGUnUFTrE1XkIBHMkFd8HBLt.iHfPTYrEVdSkmai0iHv3hL0HBHDUFagkmSuQWY8HBLtHSMh.BQkwVX48USy0iHv3RMvTSL3XCLxDyLxbSN2HCMh.BQkwVX4cUXxAWOh.iK1HiM4jSN4bCMxTCL2jyL0HBHCwVYgIWOhDiKvHBHFUVYjIVXisVOh.iK1fSMv.CLv.iLyfCMwfSM3HBHDUlaykFc40iHw3BLh.xUoQFcn0iHw3BLh.BSuc2P0QWOh.iKvHBHHk1YnMTcz0iHw3BLh.RSuQlTgQWY8HBLtHCNxjSN4jSNxLyMvXCL0TiHfzzajQTYvQGZ8HBLtTiHfzzajUVOh.iKx.CNyLyLyHCNyXiMxbSN1HBHRU1bkImckQVL8HBLt.iHfHUYyUlb1UFYxziHv3BLh.hTkMWYxYWYjMSOh.iKvHBHRU1bkImckQFM8HBLt.iHfzVZ3wzaisVOh.iHfTWZWkFYzgVOhfiLvHBH0kFRkk1YnQWOhPyL0HxK9.."
									}
,
									"fileref" : 									{
										"name" : "ValhallaSupermassive",
										"filename" : "ValhallaSupermassive_20250314.maxsnap",
										"filepath" : "~/Documents/Max 8/Snapshots",
										"filepos" : -1,
										"snapshotfileid" : "e254cbe4b0f5505cb0cc65a683feedd4"
									}

								}
, 								{
									"filetype" : "C74Snapshot",
									"version" : 2,
									"minorversion" : 0,
									"name" : "ValhallaSupermassive",
									"origin" : "ValhallaSupermassive.vstinfo",
									"type" : "VST",
									"subtype" : "AudioEffect",
									"embed" : 0,
									"fileref" : 									{
										"name" : "ValhallaSupermassive",
										"filename" : "ValhallaSupermassive.maxsnap",
										"filepath" : "~/Documents/Max 8/Snapshots",
										"filepos" : -1,
										"snapshotfileid" : "97cf98eb846d0999ce92c1cc77e76843"
									}

								}
 ]
						}

					}
,
					"text" : "vst~ ValhallaSupermassive",
					"varname" : "vst~[2]",
					"viewvisibility" : 0
				}

			}
, 			{
				"box" : 				{
					"autosave" : 1,
					"bgmode" : 0,
					"border" : 0,
					"clickthrough" : 0,
					"id" : "obj-3",
					"maxclass" : "newobj",
					"numinlets" : 2,
					"numoutlets" : 22,
					"offset" : [ 0.0, 0.0 ],
					"outlettype" : [ "signal", "signal", "signal", "signal", "signal", "signal", "signal", "signal", "signal", "signal", "signal", "signal", "signal", "signal", "signal", "signal", "", "list", "int", "", "", "" ],
					"patching_rect" : [ 154.920637786388397, 492.857150495052338, 239.5, 22.0 ],
					"save" : [ "#N", "vst~", "loaduniqueid", 0, 16, "ambix_encoder_o3", ";" ],
					"saved_attribute_attributes" : 					{
						"valueof" : 						{
							"parameter_invisible" : 1,
							"parameter_longname" : "vst~[4]",
							"parameter_modmode" : 0,
							"parameter_shortname" : "vst~",
							"parameter_type" : 3
						}

					}
,
					"saved_object_attributes" : 					{
						"enablevscroll" : 0,
						"parameter_enable" : 1,
						"parameter_mappable" : 0
					}
,
					"snapshot" : 					{
						"filetype" : "C74Snapshot",
						"version" : 2,
						"minorversion" : 0,
						"name" : "snapshotlist",
						"origin" : "vst~",
						"type" : "list",
						"subtype" : "Undefined",
						"embed" : 1,
						"snapshot" : 						{
							"pluginname" : "ambix_encoder_o3.vstinfo",
							"plugindisplayname" : "ambix_encoder_o3",
							"pluginsavedname" : "",
							"pluginsaveduniqueid" : 1095053619,
							"version" : 1,
							"isbank" : 0,
							"isbase64" : 1,
							"blob" : "246.CMlaKA....fQPMDZ....ADTQwLC..L......A.........................................ftVMjLgDK....O+fWarAhckI2bo8la8HRLt.iHfTlai8FYo41Y8HRUTYTK3HxO9.BOMkETLU0QI4zTEQEUI4zQSABL8HBLt.CMzPCMyjSN3PCN0fCLyXiHfDSOh.iK0TCNyLiL4bSN1bSNw.yM2HBHxziHv3BLh.xL8HBLtTiHfPSOh.iK0HBH0ziHv3RMh.hM8HBLtTiHfbSOh.iK0HBH3ziHv3RMh.RN8HBLtHSMh.RaIQTOhDiHu3C."
						}
,
						"snapshotlist" : 						{
							"current_snapshot" : 0,
							"entries" : [ 								{
									"filetype" : "C74Snapshot",
									"version" : 2,
									"minorversion" : 0,
									"name" : "ambix_encoder_o3",
									"origin" : "ambix_encoder_o3.vstinfo",
									"type" : "VST",
									"subtype" : "AudioEffect",
									"embed" : 0,
									"snapshot" : 									{
										"pluginname" : "ambix_encoder_o3.vstinfo",
										"plugindisplayname" : "ambix_encoder_o3",
										"pluginsavedname" : "",
										"pluginsaveduniqueid" : 1095053619,
										"version" : 1,
										"isbank" : 0,
										"isbase64" : 1,
										"blob" : "246.CMlaKA....fQPMDZ....ADTQwLC..L......A.........................................ftVMjLgDK....O+fWarAhckI2bo8la8HRLt.iHfTlai8FYo41Y8HRUTYTK3HxO9.BOMkETLU0QI4zTEQEUI4zQSABL8HBLt.CMzPCMyjSN3PCN0fCLyXiHfDSOh.iK0TCNyLiL4bSN1bSNw.yM2HBHxziHv3BLh.xL8HBLtTiHfPSOh.iK0HBH0ziHv3RMh.hM8HBLtTiHfbSOh.iK0HBH3ziHv3RMh.RN8HBLtHSMh.RaIQTOhDiHu3C."
									}
,
									"fileref" : 									{
										"name" : "ambix_encoder_o3",
										"filename" : "ambix_encoder_o3.maxsnap",
										"filepath" : "~/Documents/Max 8/Snapshots",
										"filepos" : -1,
										"snapshotfileid" : "afa830ab7983c47154905dfc61230b67"
									}

								}
 ]
						}

					}
,
					"text" : "vst~ 16 ambix_encoder_o3",
					"varname" : "vst~",
					"viewvisibility" : 0
				}

			}
 ],
		"lines" : [ 			{
				"patchline" : 				{
					"destination" : [ "obj-2", 0 ],
					"source" : [ "obj-1", 0 ]
				}

			}
, 			{
				"patchline" : 				{
					"destination" : [ "obj-17", 1 ],
					"order" : 0,
					"source" : [ "obj-11", 0 ]
				}

			}
, 			{
				"patchline" : 				{
					"destination" : [ "obj-19", 0 ],
					"order" : 1,
					"source" : [ "obj-11", 0 ]
				}

			}
, 			{
				"patchline" : 				{
					"destination" : [ "obj-3", 0 ],
					"source" : [ "obj-12", 0 ]
				}

			}
, 			{
				"patchline" : 				{
					"destination" : [ "obj-72", 0 ],
					"hidden" : 1,
					"source" : [ "obj-13", 0 ]
				}

			}
, 			{
				"patchline" : 				{
					"destination" : [ "obj-74", 0 ],
					"hidden" : 1,
					"source" : [ "obj-14", 0 ]
				}

			}
, 			{
				"patchline" : 				{
					"destination" : [ "obj-3", 0 ],
					"source" : [ "obj-17", 0 ]
				}

			}
, 			{
				"patchline" : 				{
					"destination" : [ "obj-17", 0 ],
					"source" : [ "obj-19", 0 ]
				}

			}
, 			{
				"patchline" : 				{
					"destination" : [ "obj-9", 1 ],
					"order" : 0,
					"source" : [ "obj-20", 0 ]
				}

			}
, 			{
				"patchline" : 				{
					"destination" : [ "obj-9", 0 ],
					"order" : 1,
					"source" : [ "obj-20", 0 ]
				}

			}
, 			{
				"patchline" : 				{
					"destination" : [ "obj-81", 0 ],
					"source" : [ "obj-21", 0 ]
				}

			}
, 			{
				"patchline" : 				{
					"destination" : [ "obj-1", 15 ],
					"source" : [ "obj-3", 15 ]
				}

			}
, 			{
				"patchline" : 				{
					"destination" : [ "obj-1", 14 ],
					"source" : [ "obj-3", 14 ]
				}

			}
, 			{
				"patchline" : 				{
					"destination" : [ "obj-1", 13 ],
					"source" : [ "obj-3", 13 ]
				}

			}
, 			{
				"patchline" : 				{
					"destination" : [ "obj-1", 12 ],
					"source" : [ "obj-3", 12 ]
				}

			}
, 			{
				"patchline" : 				{
					"destination" : [ "obj-1", 11 ],
					"source" : [ "obj-3", 11 ]
				}

			}
, 			{
				"patchline" : 				{
					"destination" : [ "obj-1", 10 ],
					"source" : [ "obj-3", 10 ]
				}

			}
, 			{
				"patchline" : 				{
					"destination" : [ "obj-1", 9 ],
					"source" : [ "obj-3", 9 ]
				}

			}
, 			{
				"patchline" : 				{
					"destination" : [ "obj-1", 8 ],
					"source" : [ "obj-3", 8 ]
				}

			}
, 			{
				"patchline" : 				{
					"destination" : [ "obj-1", 7 ],
					"source" : [ "obj-3", 7 ]
				}

			}
, 			{
				"patchline" : 				{
					"destination" : [ "obj-1", 6 ],
					"source" : [ "obj-3", 6 ]
				}

			}
, 			{
				"patchline" : 				{
					"destination" : [ "obj-1", 5 ],
					"source" : [ "obj-3", 5 ]
				}

			}
, 			{
				"patchline" : 				{
					"destination" : [ "obj-1", 4 ],
					"source" : [ "obj-3", 4 ]
				}

			}
, 			{
				"patchline" : 				{
					"destination" : [ "obj-1", 3 ],
					"source" : [ "obj-3", 3 ]
				}

			}
, 			{
				"patchline" : 				{
					"destination" : [ "obj-1", 2 ],
					"source" : [ "obj-3", 2 ]
				}

			}
, 			{
				"patchline" : 				{
					"destination" : [ "obj-1", 1 ],
					"source" : [ "obj-3", 1 ]
				}

			}
, 			{
				"patchline" : 				{
					"destination" : [ "obj-1", 0 ],
					"source" : [ "obj-3", 0 ]
				}

			}
, 			{
				"patchline" : 				{
					"destination" : [ "obj-20", 0 ],
					"source" : [ "obj-4", 0 ]
				}

			}
, 			{
				"patchline" : 				{
					"destination" : [ "obj-42", 0 ],
					"source" : [ "obj-41", 0 ]
				}

			}
, 			{
				"patchline" : 				{
					"destination" : [ "obj-44", 0 ],
					"source" : [ "obj-42", 1 ]
				}

			}
, 			{
				"patchline" : 				{
					"destination" : [ "obj-54", 0 ],
					"source" : [ "obj-42", 0 ]
				}

			}
, 			{
				"patchline" : 				{
					"destination" : [ "obj-46", 0 ],
					"source" : [ "obj-44", 0 ]
				}

			}
, 			{
				"patchline" : 				{
					"destination" : [ "obj-47", 0 ],
					"source" : [ "obj-46", 0 ]
				}

			}
, 			{
				"patchline" : 				{
					"destination" : [ "obj-50", 0 ],
					"source" : [ "obj-48", 0 ]
				}

			}
, 			{
				"patchline" : 				{
					"destination" : [ "obj-6", 0 ],
					"source" : [ "obj-5", 0 ]
				}

			}
, 			{
				"patchline" : 				{
					"destination" : [ "obj-47", 0 ],
					"source" : [ "obj-50", 0 ]
				}

			}
, 			{
				"patchline" : 				{
					"destination" : [ "obj-53", 0 ],
					"source" : [ "obj-52", 0 ]
				}

			}
, 			{
				"patchline" : 				{
					"destination" : [ "obj-66", 0 ],
					"source" : [ "obj-53", 0 ]
				}

			}
, 			{
				"patchline" : 				{
					"destination" : [ "obj-53", 1 ],
					"source" : [ "obj-54", 0 ]
				}

			}
, 			{
				"patchline" : 				{
					"destination" : [ "obj-3", 0 ],
					"source" : [ "obj-6", 0 ]
				}

			}
, 			{
				"patchline" : 				{
					"destination" : [ "obj-20", 0 ],
					"source" : [ "obj-63", 0 ]
				}

			}
, 			{
				"patchline" : 				{
					"destination" : [ "obj-11", 0 ],
					"source" : [ "obj-66", 0 ]
				}

			}
, 			{
				"patchline" : 				{
					"destination" : [ "obj-7", 0 ],
					"source" : [ "obj-66", 1 ]
				}

			}
, 			{
				"patchline" : 				{
					"destination" : [ "obj-5", 0 ],
					"order" : 1,
					"source" : [ "obj-7", 0 ]
				}

			}
, 			{
				"patchline" : 				{
					"destination" : [ "obj-6", 1 ],
					"order" : 0,
					"source" : [ "obj-7", 0 ]
				}

			}
, 			{
				"patchline" : 				{
					"destination" : [ "obj-81", 7 ],
					"source" : [ "obj-72", 0 ]
				}

			}
, 			{
				"patchline" : 				{
					"destination" : [ "obj-81", 6 ],
					"source" : [ "obj-74", 0 ]
				}

			}
, 			{
				"patchline" : 				{
					"destination" : [ "obj-81", 5 ],
					"source" : [ "obj-75", 0 ]
				}

			}
, 			{
				"patchline" : 				{
					"destination" : [ "obj-75", 0 ],
					"hidden" : 1,
					"source" : [ "obj-8", 0 ]
				}

			}
, 			{
				"patchline" : 				{
					"destination" : [ "obj-13", 0 ],
					"hidden" : 1,
					"source" : [ "obj-81", 3 ]
				}

			}
, 			{
				"patchline" : 				{
					"destination" : [ "obj-14", 0 ],
					"hidden" : 1,
					"source" : [ "obj-81", 2 ]
				}

			}
, 			{
				"patchline" : 				{
					"destination" : [ "obj-16", 1 ],
					"order" : 0,
					"source" : [ "obj-81", 0 ]
				}

			}
, 			{
				"patchline" : 				{
					"destination" : [ "obj-20", 0 ],
					"order" : 1,
					"source" : [ "obj-81", 0 ]
				}

			}
, 			{
				"patchline" : 				{
					"destination" : [ "obj-8", 0 ],
					"hidden" : 1,
					"source" : [ "obj-81", 1 ]
				}

			}
, 			{
				"patchline" : 				{
					"destination" : [ "obj-12", 0 ],
					"source" : [ "obj-9", 0 ]
				}

			}
 ]
	}

}
